<svg id="SvgjsSvg1034" xmlns="http://www.w3.org/2000/svg" version="1.1" xmlns:xlink="http://www.w3.org/1999/xlink" xmlns:svgjs="http://svgjs.com/svgjs" width="13" height="23" viewBox="0 0 13 23"><title>Shape 2 copy 2</title><desc>Created with Avocode.</desc><defs id="SvgjsDefs1035"></defs><path id="SvgjsPath1036" d="M854.306 7388.46L854.306 7378.76L851.322 7378.76L851.322 7374.72L854.306 7374.72C854.306 7374.72 854.306 7373.070000000001 854.306 7371.27C854.306 7368.56 856.07 7366.070000000001 860.1320000000001 7366.070000000001C861.777 7366.070000000001 862.994 7366.22 862.994 7366.22L862.898 7370C862.898 7370 861.657 7369.99 860.304 7369.99C858.8389999999999 7369.99 858.6039999999999 7370.66 858.6039999999999 7371.7699999999995C858.6039999999999 7372.65 858.6039999999999 7369.889999999999 858.6039999999999 7374.719999999999L863.0139999999999 7374.719999999999L862.8219999999999 7378.759999999999L858.6039999999999 7378.759999999999L858.6039999999999 7388.459999999999Z " fill="#ffffff" fill-opacity="1" transform="matrix(1,0,0,1,-851,-7366)"></path></svg>