<svg id="SvgjsSvg1040" xmlns="http://www.w3.org/2000/svg" version="1.1" xmlns:xlink="http://www.w3.org/1999/xlink" xmlns:svgjs="http://svgjs.com/svgjs" width="48" height="48" viewBox="0 0 48 48"><title>Ellipse 4</title><desc>Created with Avocode.</desc><defs id="SvgjsDefs1041"><clipPath id="SvgjsClipPath1045"><path id="SvgjsPath1044" d="M486 2831C499.255 2831 510 2841.75 510 2855C510 2868.25 499.255 2879 486 2879C472.745 2879 462 2868.25 462 2855C462 2841.75 472.745 2831 486 2831Z " fill="#ffffff"></path></clipPath></defs><path id="SvgjsPath1042" d="M486 2831C499.255 2831 510 2841.75 510 2855C510 2868.25 499.255 2879 486 2879C472.745 2879 462 2868.25 462 2855C462 2841.75 472.745 2831 486 2831Z " fill="#b91443" fill-opacity="0" transform="matrix(1,0,0,1,-462,-2831)"></path><path id="SvgjsPath1043" d="M486 2831C499.255 2831 510 2841.75 510 2855C510 2868.25 499.255 2879 486 2879C472.745 2879 462 2868.25 462 2855C462 2841.75 472.745 2831 486 2831Z " fill-opacity="0" fill="#ffffff" stroke-dasharray="0" stroke-linejoin="round" stroke-linecap="round" stroke-opacity="1" stroke="#b91544" stroke-miterlimit="50" stroke-width="4" clip-path="url(&quot;#SvgjsClipPath1045&quot;)" transform="matrix(1,0,0,1,-462,-2831)"></path><path id="SvgjsPath1046" d="M495.418 2864.58C494.711 2865.18 493.62600000000003 2865.13 492.994 2864.45L488.874 2860.0499999999997C485.954 2861.62 482.184 2861.1 479.858 2858.62C477.172 2855.75 477.431 2851.3399999999997 480.436 2848.77C483.441 2846.21 488.054 2846.45 490.73999999999995 2849.33C492.99799999999993 2851.74 493.174 2855.24 491.38899999999995 2857.81L495.554 2862.2599999999998C496.186 2862.9399999999996 496.125 2863.9799999999996 495.41799999999995 2864.58ZM488.836 2850.95C487.09000000000003 2849.0899999999997 484.091 2848.9199999999996 482.13800000000003 2850.5899999999997C480.18500000000006 2852.2599999999998 480.016 2855.12 481.76200000000006 2856.99C483.50800000000004 2858.8599999999997 486.50700000000006 2859.02 488.46000000000004 2857.35C490.413 2855.68 490.58200000000005 2852.8199999999997 488.836 2850.95Z " fill="#b91443" fill-opacity="1" transform="matrix(1,0,0,1,-462,-2831)"></path></svg>