<svg id="SvgjsSvg1037" xmlns="http://www.w3.org/2000/svg" version="1.1" xmlns:xlink="http://www.w3.org/1999/xlink" xmlns:svgjs="http://svgjs.com/svgjs" width="16" height="20" viewBox="0 0 16 20"><title>В copy 2</title><desc>Created with Avocode.</desc><defs id="SvgjsDefs1038"></defs><path id="SvgjsPath1039" d="M924.181 7377.58C923.4820000000001 7376.83 922.553 7376.34 921.392 7376.1L921.392 7376C922.2 7375.67 922.8330000000001 7375.15 923.291 7374.44C923.75 7373.73 923.979 7372.929999999999 923.979 7372.0199999999995C923.979 7371.24 923.813 7370.549999999999 923.48 7369.95C923.148 7369.349999999999 922.645 7368.87 921.972 7368.5199999999995C921.35 7368.179999999999 920.683 7367.969999999999 919.972 7367.86C919.262 7367.759999999999 918.216 7367.71 916.837 7367.71L910.199 7367.71L910.199 7386.28L917.7199999999999 7386.28C919.0239999999999 7386.28 920.0989999999999 7386.16 920.944 7385.929999999999C921.79 7385.7 922.5659999999999 7385.299999999999 923.2719999999999 7384.759999999999C923.8689999999999 7384.299999999999 924.3449999999999 7383.719999999999 924.698 7383.0199999999995C925.0509999999999 7382.32 925.228 7381.509999999999 925.228 7380.589999999999C925.228 7379.329999999999 924.8789999999999 7378.319999999999 924.1809999999999 7377.579999999999ZM918.969 7374.03C918.826 7374.34 918.566 7374.58 918.187 7374.75C917.842 7374.91 917.5070000000001 7375 917.184 7375.01C916.86 7375.030000000001 916.294 7375.04 915.487 7375.04L914.8929999999999 7375.04L914.8929999999999 7371.11L915.2209999999999 7371.11C916.0629999999999 7371.11 916.6959999999999 7371.12 917.1209999999999 7371.13C917.5449999999998 7371.14 917.9129999999999 7371.21 918.2249999999999 7371.35C918.5529999999999 7371.490000000001 918.795 7371.72 918.9499999999999 7372.030000000001C919.1059999999999 7372.35 919.184 7372.660000000001 919.184 7372.960000000001C919.184 7373.360000000001 919.112 7373.720000000001 918.9689999999999 7374.030000000001ZM920.073 7381.71C919.876 7382.06 919.562 7382.33 919.1329999999999 7382.51C918.6449999999999 7382.72 918.1659999999999 7382.83 917.6949999999999 7382.85C917.223 7382.860000000001 916.3739999999999 7382.870000000001 915.146 7382.870000000001L914.8929999999999 7382.870000000001L914.8929999999999 7378.220000000001L915.7639999999999 7378.220000000001C916.6049999999999 7378.220000000001 917.2759999999998 7378.230000000001 917.7769999999999 7378.240000000002C918.2769999999999 7378.250000000002 918.6709999999999 7378.310000000001 918.9569999999999 7378.420000000002C919.4279999999999 7378.590000000002 919.7809999999998 7378.830000000002 920.0169999999998 7379.160000000002C920.2519999999998 7379.480000000001 920.3699999999998 7379.930000000002 920.3699999999998 7380.500000000002C920.3699999999998 7380.950000000002 920.2709999999997 7381.350000000002 920.0729999999998 7381.710000000002Z " fill="#ffffff" fill-opacity="1" transform="matrix(1,0,0,1,-910,-7367)"></path></svg>